<svg xmlns="http://www.w3.org/2000/svg" xmlns:xlink="http://www.w3.org/1999/xlink" viewBox="0 0 284.65148 210.7152"><defs><style>.cls-1{fill:url(#Degradado_sin_nombre_169);}.cls-2,.cls-3{font-size:54.49154px;letter-spacing:0.09299em;}.cls-2,.cls-4{fill:#fff;}.cls-2,.cls-3,.cls-4,.cls-5,.cls-6{font-family:Impact;}.cls-3,.cls-5{fill:#240842;}.cls-4,.cls-5,.cls-6{font-size:48.5555px;letter-spacing:0.232em;}.cls-6{fill:#ff7159;}</style><linearGradient id="Degradado_sin_nombre_169" x1="261.02819" y1="-20.92791" x2="8.13622" y2="160.76864" gradientTransform="translate(2.28009 -3.04398) rotate(1.08298)" gradientUnits="userSpaceOnUse"><stop offset="0" stop-color="#1b8af9"/><stop offset="0.44055" stop-color="#5c2a8d"/><stop offset="1" stop-color="#ff7159"/></linearGradient></defs><g id="Layer_2" data-name="Layer 2"><g id="OBJECTS"><path class="cls-1" d="M120.89632,123.63565l-8.4482,3.4767a420.11918,420.11918,0,0,1-39.8851,15.9498c-54.51559,17.9321-34.265-12.0558-30.14429-17.6526-37.4359,48.8774-12.45471,47.712,6.256,42.4619a107.104,107.104,0,0,0,21.15259-8.5325l11.0245-5.8258,46.746-24.6911,68.51191-36.1845Zm134.7858-48.1054c-.6466-4.5639-4.006-7.8651-7.5131-7.3769s-5.8292,4.5912-5.1831,9.1653c.6365,4.5633,4.0061,7.865,7.5031,7.3763C253.99662,84.19655,256.31873,80.09355,255.68212,75.53025Zm28.8267-63.5089c-1.0622-5.9599-11.6957-6.8222-11.6957-6.8222a26.77914,26.77914,0,0,0-13.2766-5.0116,21.55626,21.55626,0,0,0-4.718-.1046c-.2661.0268-.5423.0531-.8292.0889-5.7939.6128-16.198,2.7554-28.6241,9.882.6342-.2518,15.402-6.024,29.5696-6.5545a38.31083,38.31083,0,0,1,13.0637,1.4985,13.47623,13.47623,0,0,1,1.7354,2.0454,5.38879,5.38879,0,0,0,2.9633,2.1199,4.15177,4.15177,0,0,1,1.65551.8502,1.05321,1.05321,0,0,1-.78711,1.8115,141.42307,141.42307,0,0,0-15.2983.1557c-4.0954.2538-8.7213.7241-13.58759,1.5076a31.088,31.088,0,0,0-8.98841,2.909l-19.6531,9.8326-20.6151,10.3217c1.1347-.4801,11.6268-4.8881,23.4714-8.8793,9.9896-3.3655,20.9614-6.4353,28.0954-6.591a.799.799,0,0,1,.431,1.4885l-17.4286,10.3155-76.039,45.0132-17.2345,11.0791,33.088-13.089-41.9865,22.6398a33.75646,33.75646,0,0,1-6.20159,2.5663c-8.17,2.4429-15.45481,4.3111-21.94091,5.7019-31.9498,6.9083-44.2069,2.6424-44.2069,2.6424-2.5795,4.7411,1.2115,6.8025,1.2115,6.8025,7.0621.8279,15.9331.356,24.969-.7384l21.6962,6.7453-4.947-3.6999,9.1553,1.8742,4.5321-1.7885-5.9566-6.7761-.3554-.4055c9.2825-1.9162,16.6913-3.8187,19.5608-4.5744a11.86735,11.86735,0,0,0,2.43091-.9314l60.87459-31.4741,28.7895,18.0601-4.084,1.2011,4.4316.3238-7.3554,3.7986,6.42671-.2538,3.98189-2.9472,8.81111,5.531-7.96381-6.1585,5.5493-4.1071c4.8208,3.1945,10.2129,6.7548,15.0049,9.9172l-10.4941,3.278,6.2155-.6925-5.1024,3.1532-4.9748,2.6611,7.0726-.3422,8.1489-7.4829c7.0353,4.6439,12.53591,8.271,12.53591,8.271l3.32919-.3957a.93309.93309,0,0,1-.0109,1.3737l-7.0272,6.2794a104.34685,104.34685,0,0,0,10.5501-5.5146.91464.91464,0,0,0,.1359-1.4283l-19.0903-18.6007,8.4217-4.1399c-12.2467.5904-10.9446-14.1632-10.9446-14.1632l-2.9238,1.9846a14.46385,14.46385,0,0,1-8.77209,2.4724L213.81612,61.468,250.165,42.676l18.4466-9.5394c.9477-.6019,1.8447-1.2064,2.6797-1.7939C286.98642,20.30515,284.50882,12.02135,284.50882,12.02135Zm-68.6527,70.361c2.4492,1.6348,6.4828,4.3096,11.07761,7.3497l-7.83721,2.3075-10.5274-8.1352Zm-79.8937,52.5275-50.7185,25.318-23.3628,11.664a142.8531,142.8531,0,0,1-21.766,8.7752c-53.89609,16.6005-21.20109-28.2497-17.013-33.7718-52.6457,64.8369,1.1559,50.6237,1.1559,50.6237,20.28819-6.4094,43.53039-17.52,65.54609-29.5091,18.6522-10.1598,36.4204-20.9361,50.73061-30.0203,19.29069-12.2439,32.32109-21.385,32.83939-21.7548Zm32.4585-83.4848a10.47662,10.47662,0,0,0,.2367-4.1308c-.6462-4.574-4.0057-7.8752-7.5132-7.3769-2.7998.393-4.8342,3.0859-5.2255,6.4756.0032.1325-.1069,8.2604,7.546,10.0558,0,0-6.5574.8069-9.8261-6.7548l-14.237,2.6341,9.5766-3.4483L35.55012,34.00145l94.8009,21.843a.28947.28947,0,0,1-.13129.5632L20.61823,37.65775c-11.4928-1.3654-14.9015-6.8374-15.1078-7.174.8323,5.4898,7.1052,8.3633,7.1052,8.3633l87.22179,18.0563-7.7655.1634,6.1629,1.0863-11.3014,2.7572,6.8865,1.6535,9.5522-4.9256,2.9811.6143a72.709,72.709,0,0,1,9.5402,2.6882l-9.6089.5657,6.1961.8437-11.19189,3.1906,6.95119,1.3922,9.4409-5.3285q2.9337,1.131,5.7621,2.521l2.2925,1.1279,20.7739,8.4174,36.8748-20.2811ZM126.31032,82.07,91.863,100.51345l55.2235-24.2574-21.3511-11.0028-27.494,14.1556,23.7762-6.1454a4.26262,4.26262,0,0,1,3.6169.7188l1.2051.8978A4.27232,4.27232,0,0,1,126.31032,82.07Zm-80.5147,16.7638-25.65279-5.0592,1.6742-3.0069-8.4686,4.8398,47.87269,13.6643L79.187,94.13865ZM94.027,82.13005,71.19942,52.085l-12.988,5.6109,4.9957,26.6783,1.7902,9.5508,10.7211-3.5309,10.089-3.3195L66.865,57.48735Z"/><text class="cls-2" transform="matrix(0.96593, 0, -0.25882, 0.96593, 86.46122, 189.11594)">Travel</text><text class="cls-3" transform="matrix(0.96593, 0, -0.25882, 0.96593, 90.66123, 193.31594)">Travel</text><text class="cls-3" transform="matrix(0.96593, 0, -0.25882, 0.96593, 90.56123, 193.21594)">Travel</text><text class="cls-3" transform="matrix(0.96593, 0, -0.25882, 0.96593, 90.46123, 193.11594)">Travel</text><text class="cls-3" transform="matrix(0.96593, 0, -0.25882, 0.96593, 90.36123, 193.01594)">Travel</text><text class="cls-3" transform="matrix(0.96593, 0, -0.25882, 0.96593, 90.26123, 192.91594)">Travel</text><text class="cls-3" transform="matrix(0.96593, 0, -0.25882, 0.96593, 90.16123, 192.81594)">Travel</text><text class="cls-3" transform="matrix(0.96593, 0, -0.25882, 0.96593, 90.06123, 192.71594)">Travel</text><text class="cls-3" transform="matrix(0.96593, 0, -0.25882, 0.96593, 89.96123, 192.61594)">Travel</text><text class="cls-3" transform="matrix(0.96593, 0, -0.25882, 0.96593, 89.86123, 192.51594)">Travel</text><text class="cls-3" transform="matrix(0.96593, 0, -0.25882, 0.96593, 89.76123, 192.41594)">Travel</text><text class="cls-3" transform="matrix(0.96593, 0, -0.25882, 0.96593, 89.66123, 192.31594)">Travel</text><text class="cls-3" transform="matrix(0.96593, 0, -0.25882, 0.96593, 89.56123, 192.21594)">Travel</text><text class="cls-3" transform="matrix(0.96593, 0, -0.25882, 0.96593, 89.46123, 192.11594)">Travel</text><text class="cls-3" transform="matrix(0.96593, 0, -0.25882, 0.96593, 89.36123, 192.01594)">Travel</text><text class="cls-3" transform="matrix(0.96593, 0, -0.25882, 0.96593, 89.26123, 191.91594)">Travel</text><text class="cls-3" transform="matrix(0.96593, 0, -0.25882, 0.96593, 89.16123, 191.81594)">Travel</text><text class="cls-3" transform="matrix(0.96593, 0, -0.25882, 0.96593, 89.06123, 191.71594)">Travel</text><text class="cls-3" transform="matrix(0.96593, 0, -0.25882, 0.96593, 88.96123, 191.61594)">Travel</text><text class="cls-3" transform="matrix(0.96593, 0, -0.25882, 0.96593, 88.86123, 191.51594)">Travel</text><text class="cls-3" transform="matrix(0.96593, 0, -0.25882, 0.96593, 88.76123, 191.41594)">Travel</text><text class="cls-3" transform="matrix(0.96593, 0, -0.25882, 0.96593, 88.66123, 191.31594)">Travel</text><text class="cls-3" transform="matrix(0.96593, 0, -0.25882, 0.96593, 88.56123, 191.21594)">Travel</text><text class="cls-3" transform="matrix(0.96593, 0, -0.25882, 0.96593, 88.46123, 191.11594)">Travel</text><text class="cls-3" transform="matrix(0.96593, 0, -0.25882, 0.96593, 88.36123, 191.01594)">Travel</text><text class="cls-3" transform="matrix(0.96593, 0, -0.25882, 0.96593, 88.26123, 190.91594)">Travel</text><text class="cls-3" transform="matrix(0.96593, 0, -0.25882, 0.96593, 88.16123, 190.81594)">Travel</text><text class="cls-3" transform="matrix(0.96593, 0, -0.25882, 0.96593, 88.06123, 190.71594)">Travel</text><text class="cls-3" transform="matrix(0.96593, 0, -0.25882, 0.96593, 87.96123, 190.61594)">Travel</text><text class="cls-3" transform="matrix(0.96593, 0, -0.25882, 0.96593, 87.86123, 190.51594)">Travel</text><text class="cls-3" transform="matrix(0.96593, 0, -0.25882, 0.96593, 87.76123, 190.41594)">Travel</text><text class="cls-3" transform="matrix(0.96593, 0, -0.25882, 0.96593, 87.66123, 190.31594)">Travel</text><text class="cls-3" transform="matrix(0.96593, 0, -0.25882, 0.96593, 87.56123, 190.21594)">Travel</text><text class="cls-3" transform="matrix(0.96593, 0, -0.25882, 0.96593, 87.46123, 190.11594)">Travel</text><text class="cls-3" transform="matrix(0.96593, 0, -0.25882, 0.96593, 87.36123, 190.01594)">Travel</text><text class="cls-3" transform="matrix(0.96593, 0, -0.25882, 0.96593, 87.26123, 189.91594)">Travel</text><text class="cls-3" transform="matrix(0.96593, 0, -0.25882, 0.96593, 87.16123, 189.81594)">Travel</text><text class="cls-3" transform="matrix(0.96593, 0, -0.25882, 0.96593, 87.06123, 189.71594)">Travel</text><text class="cls-3" transform="matrix(0.96593, 0, -0.25882, 0.96593, 86.96122, 189.61594)">Travel</text><text class="cls-3" transform="matrix(0.96593, 0, -0.25882, 0.96593, 86.86122, 189.51594)">Travel</text><text class="cls-3" transform="matrix(0.96593, 0, -0.25882, 0.96593, 86.76122, 189.41594)">Travel</text><text class="cls-3" transform="matrix(0.96593, 0, -0.25882, 0.96593, 86.66122, 189.31594)">Travel</text><text class="cls-3" transform="matrix(0.96593, 0, -0.25882, 0.96593, 86.56122, 189.21594)">Travel</text><text class="cls-3" transform="matrix(0.96593, 0, -0.25882, 0.96593, 86.46122, 189.11594)">Travel</text><text class="cls-2" transform="matrix(0.96593, 0, -0.25882, 0.96593, 86.46122, 189.11594)">Travel</text><text class="cls-4" transform="matrix(0.96593, 0, -0.25882, 0.96593, 138.4327, 141.62486)">K43</text><text class="cls-5" transform="matrix(0.96593, 0, -0.25882, 0.96593, 142.63272, 145.82485)">K43</text><text class="cls-5" transform="matrix(0.96593, 0, -0.25882, 0.96593, 142.53272, 145.72485)">K43</text><text class="cls-5" transform="matrix(0.96593, 0, -0.25882, 0.96593, 142.43272, 145.62485)">K43</text><text class="cls-5" transform="matrix(0.96593, 0, -0.25882, 0.96593, 142.33272, 145.52485)">K43</text><text class="cls-5" transform="matrix(0.96593, 0, -0.25882, 0.96593, 142.23272, 145.42485)">K43</text><text class="cls-5" transform="matrix(0.96593, 0, -0.25882, 0.96593, 142.13272, 145.32485)">K43</text><text class="cls-5" transform="matrix(0.96593, 0, -0.25882, 0.96593, 142.03272, 145.22485)">K43</text><text class="cls-5" transform="matrix(0.96593, 0, -0.25882, 0.96593, 141.93272, 145.12485)">K43</text><text class="cls-5" transform="matrix(0.96593, 0, -0.25882, 0.96593, 141.83272, 145.02485)">K43</text><text class="cls-5" transform="matrix(0.96593, 0, -0.25882, 0.96593, 141.73271, 144.92485)">K43</text><text class="cls-5" transform="matrix(0.96593, 0, -0.25882, 0.96593, 141.63271, 144.82485)">K43</text><text class="cls-5" transform="matrix(0.96593, 0, -0.25882, 0.96593, 141.53271, 144.72485)">K43</text><text class="cls-5" transform="matrix(0.96593, 0, -0.25882, 0.96593, 141.43271, 144.62485)">K43</text><text class="cls-5" transform="matrix(0.96593, 0, -0.25882, 0.96593, 141.33271, 144.52485)">K43</text><text class="cls-5" transform="matrix(0.96593, 0, -0.25882, 0.96593, 141.23271, 144.42485)">K43</text><text class="cls-5" transform="matrix(0.96593, 0, -0.25882, 0.96593, 141.13271, 144.32485)">K43</text><text class="cls-5" transform="matrix(0.96593, 0, -0.25882, 0.96593, 141.03271, 144.22485)">K43</text><text class="cls-5" transform="matrix(0.96593, 0, -0.25882, 0.96593, 140.93271, 144.12485)">K43</text><text class="cls-5" transform="matrix(0.96593, 0, -0.25882, 0.96593, 140.83271, 144.02485)">K43</text><text class="cls-5" transform="matrix(0.96593, 0, -0.25882, 0.96593, 140.73271, 143.92485)">K43</text><text class="cls-5" transform="matrix(0.96593, 0, -0.25882, 0.96593, 140.63271, 143.82485)">K43</text><text class="cls-5" transform="matrix(0.96593, 0, -0.25882, 0.96593, 140.53271, 143.72485)">K43</text><text class="cls-5" transform="matrix(0.96593, 0, -0.25882, 0.96593, 140.43271, 143.62485)">K43</text><text class="cls-5" transform="matrix(0.96593, 0, -0.25882, 0.96593, 140.33271, 143.52485)">K43</text><text class="cls-5" transform="matrix(0.96593, 0, -0.25882, 0.96593, 140.23271, 143.42485)">K43</text><text class="cls-5" transform="matrix(0.96593, 0, -0.25882, 0.96593, 140.13271, 143.32485)">K43</text><text class="cls-5" transform="matrix(0.96593, 0, -0.25882, 0.96593, 140.03271, 143.22485)">K43</text><text class="cls-5" transform="matrix(0.96593, 0, -0.25882, 0.96593, 139.93271, 143.12485)">K43</text><text class="cls-5" transform="matrix(0.96593, 0, -0.25882, 0.96593, 139.83271, 143.02485)">K43</text><text class="cls-5" transform="matrix(0.96593, 0, -0.25882, 0.96593, 139.73271, 142.92485)">K43</text><text class="cls-5" transform="matrix(0.96593, 0, -0.25882, 0.96593, 139.63271, 142.82485)">K43</text><text class="cls-5" transform="matrix(0.96593, 0, -0.25882, 0.96593, 139.53271, 142.72485)">K43</text><text class="cls-5" transform="matrix(0.96593, 0, -0.25882, 0.96593, 139.43271, 142.62486)">K43</text><text class="cls-5" transform="matrix(0.96593, 0, -0.25882, 0.96593, 139.33271, 142.52486)">K43</text><text class="cls-5" transform="matrix(0.96593, 0, -0.25882, 0.96593, 139.23271, 142.42486)">K43</text><text class="cls-5" transform="matrix(0.96593, 0, -0.25882, 0.96593, 139.13271, 142.32486)">K43</text><text class="cls-5" transform="matrix(0.96593, 0, -0.25882, 0.96593, 139.0327, 142.22486)">K43</text><text class="cls-5" transform="matrix(0.96593, 0, -0.25882, 0.96593, 138.9327, 142.12486)">K43</text><text class="cls-5" transform="matrix(0.96593, 0, -0.25882, 0.96593, 138.8327, 142.02486)">K43</text><text class="cls-5" transform="matrix(0.96593, 0, -0.25882, 0.96593, 138.7327, 141.92486)">K43</text><text class="cls-5" transform="matrix(0.96593, 0, -0.25882, 0.96593, 138.6327, 141.82486)">K43</text><text class="cls-5" transform="matrix(0.96593, 0, -0.25882, 0.96593, 138.5327, 141.72486)">K43</text><text class="cls-5" transform="matrix(0.96593, 0, -0.25882, 0.96593, 138.4327, 141.62486)">K43</text><text class="cls-6" transform="matrix(0.96593, 0, -0.25882, 0.96593, 138.4327, 141.62486)">K43</text></g></g></svg>